<svg xmlns="http://www.w3.org/2000/svg" width="39" height="39" viewBox="0 0 39 39">
  <g id="LinkedIN" transform="translate(-0.449 0.369)">
    <path id="Combined_Shape" data-name="Combined Shape" d="M19.5,39A19.505,19.505,0,0,1,11.91,1.532,19.505,19.505,0,0,1,27.09,37.468,19.378,19.378,0,0,1,19.5,39ZM16.227,16.151c.057,1.23,0,13.157,0,13.278h4.42V22.013a2.937,2.937,0,0,1,.145-1.077,2.751,2.751,0,0,1,.8-1.1,2.273,2.273,0,0,1,1.472-.509c1.465,0,2.239,1.038,2.239,3v7.1h4.419V21.815c0-3.742-1.9-5.976-5.088-5.976a4.412,4.412,0,0,0-3.983,2.193V16.151Zm-6.866,0V29.428H13.78V16.151ZM11.6,9.75a2.3,2.3,0,1,0-.057,4.588h.028A2.3,2.3,0,1,0,11.6,9.75Z" transform="translate(0.449 -0.369)" fill="#fff"/>
  </g>
</svg>
