<svg xmlns="http://www.w3.org/2000/svg" width="28.848" height="22.841" viewBox="0 0 28.848 22.841">
  <g id="_64" data-name="64" transform="translate(1 0.4)">
    <path id="Shape" d="M26.356,0H.492A.515.515,0,0,0,0,.535a.514.514,0,0,0,.492.535H26.356a.515.515,0,0,0,.492-.535A.515.515,0,0,0,26.356,0Z" transform="translate(0 0.6)" stroke="#707070" stroke-width="2"/>
    <path id="Shape-2" data-name="Shape" d="M.382,1.087h14.86c.211,0,.382-.243.382-.543S15.453,0,15.242,0H.382C.171,0,0,.243,0,.544S.171,1.087.382,1.087Z" transform="translate(0 10.488)" stroke="#707070" stroke-width="2"/>
    <path id="Shape-3" data-name="Shape" d="M26.356,0H.492A.515.515,0,0,0,0,.535a.515.515,0,0,0,.492.535H26.356a.515.515,0,0,0,.492-.535A.515.515,0,0,0,26.356,0Z" transform="translate(0 20.37)" stroke="#707070" stroke-width="2"/>
  </g>
</svg>
