<svg xmlns="http://www.w3.org/2000/svg" width="39" height="39" viewBox="0 0 39 39">
  <g id="Twitter" transform="translate(0.077 0.369)">
    <path id="Combined_Shape" data-name="Combined Shape" d="M19.5,39A19.505,19.505,0,0,1,11.91,1.532,19.505,19.505,0,0,1,27.09,37.468,19.378,19.378,0,0,1,19.5,39ZM10.375,17.244c-.021,0-.034,0-.039.011a4.908,4.908,0,0,0,.491,1.845A4.4,4.4,0,0,0,12.7,20.862l.668.316-.791.014c-.49,0-.667.006-.721.079-.034.046-.017.118.012.224a4.116,4.116,0,0,0,2.551,2.258l.845.289-.737.441A7.739,7.739,0,0,1,10.869,25.5a4.044,4.044,0,0,0-1.119.11,10.3,10.3,0,0,0,2.632,1.212,11.027,11.027,0,0,0,3.25.475,11.363,11.363,0,0,0,5.7-1.494,11.912,11.912,0,0,0,4.542-5.343,14.258,14.258,0,0,0,.928-4.131c0-.638.045-.72.8-1.474a8.849,8.849,0,0,0,.955-1.061c.05-.1.08-.157.064-.183-.007-.011-.021-.016-.044-.016a3.106,3.106,0,0,0-.592.172,3.825,3.825,0,0,1-.956.266c-.061,0-.1-.014-.109-.043-.029-.067.068-.217.316-.484a4,4,0,0,0,.927-1.474c0-.008-.007-.012-.022-.012a1.371,1.371,0,0,0-.414.163,7.621,7.621,0,0,1-1.2.469l-.737.234-.668-.455a5.52,5.52,0,0,0-1.159-.606,4.247,4.247,0,0,0-1.089-.129,4.141,4.141,0,0,0-1.3.184,3.933,3.933,0,0,0-2.66,3.966l.041.675-.682-.082a11.123,11.123,0,0,1-6.492-3.195l-.9-.9-.232.661a3.983,3.983,0,0,0,.845,4.076c.247.262.348.414.32.48-.012.027-.045.04-.1.04a2.764,2.764,0,0,1-.738-.2A2.793,2.793,0,0,0,10.375,17.244Z" transform="translate(-0.077 -0.369)" fill="#fff"/>
  </g>
</svg>
