<svg xmlns="http://www.w3.org/2000/svg" width="39" height="39" viewBox="0 0 39 39">
  <g id="Facebook" transform="translate(0 0.369)">
    <path id="Combined_Shape" data-name="Combined Shape" d="M19.5,39A19.505,19.505,0,0,1,11.91,1.532,19.505,19.505,0,0,1,27.09,37.468,19.378,19.378,0,0,1,19.5,39ZM14.95,16.7v3.656h2.193V30.966h4.39V20.357h2.928l.388-3.656H21.533l0-1.83c0-.935.068-1.464,1.46-1.464h1.831V9.75H21.9a4.762,4.762,0,0,0-3.7,1.259,4.979,4.979,0,0,0-1.059,3.5V16.7Z" transform="translate(0 -0.369)" fill="#fff"/>
  </g>
</svg>
