<svg xmlns="http://www.w3.org/2000/svg" width="39" height="39" viewBox="0 0 39 39">
  <path id="_74" data-name="74" d="M6.951,39a6.853,6.853,0,0,1-4.794-2.156A6.839,6.839,0,0,1,0,32.279,6.636,6.636,0,0,1,2.157,27.3l6.422-6.421a6.712,6.712,0,0,1,4.744-2.157,6.619,6.619,0,0,1,4.286,1.689l2.806-2.806a6.466,6.466,0,0,1-1.7-4.548,6.851,6.851,0,0,1,2.164-4.482L27.3,2.157A6.713,6.713,0,0,1,32.049,0a6.853,6.853,0,0,1,4.794,2.156A6.835,6.835,0,0,1,39,6.72a6.635,6.635,0,0,1-2.152,4.974l-6.422,6.422a6.714,6.714,0,0,1-4.744,2.157,6.62,6.62,0,0,1-4.286-1.69L18.585,21.39a6.468,6.468,0,0,1,1.7,4.548,6.853,6.853,0,0,1-2.164,4.483l-6.422,6.422A6.708,6.708,0,0,1,6.951,39Zm6.372-18.895a5.369,5.369,0,0,0-3.769,1.753L3.132,28.28a5.3,5.3,0,0,0-1.75,3.944,5.49,5.49,0,0,0,1.75,3.644,5.49,5.49,0,0,0,3.818,1.753,5.367,5.367,0,0,0,3.768-1.753l6.423-6.422c2.153-2.153,2.325-4.8.461-7.073l-3.549,3.549a.691.691,0,0,1-.976,0,.692.692,0,0,1,0-.976l3.55-3.549A5.229,5.229,0,0,0,13.322,20.105Zm12.112-7.229a.69.69,0,0,1,.488,1.178L22.372,17.6a5.231,5.231,0,0,0,3.3,1.291,5.368,5.368,0,0,0,3.769-1.753l6.422-6.423a5.29,5.29,0,0,0,1.75-3.943,5.489,5.489,0,0,0-1.75-3.643A5.488,5.488,0,0,0,32.049,1.38,5.367,5.367,0,0,0,28.28,3.133L21.858,9.555a4.921,4.921,0,0,0-.461,7.072l3.549-3.549A.685.685,0,0,1,25.434,12.876Z" transform="translate(0)" fill="#d59e29"/>
</svg>
