<svg id="Component_1" data-name="Component 1" xmlns="http://www.w3.org/2000/svg" width="37" height="13.052" viewBox="0 0 37 13.052">
  <path id="Path_2" data-name="Path 2" d="M8.393,0H36.721L28.328,13.052H0Z" fill="#d59e29"/>
  <path id="Shape" d="M3.163,19.229a.586.586,0,0,0,.765,0l3.107-2.788a.16.16,0,0,0,0-.243.208.208,0,0,0-.271,0L3.737,18.913V.172a.193.193,0,0,0-.384,0V18.913L.327,16.2a.208.208,0,0,0-.271,0,.16.16,0,0,0,0,.243Z" transform="translate(8.976 10.051) rotate(-90)" fill="#fff"/>
</svg>
