<svg xmlns="http://www.w3.org/2000/svg" width="39" height="34.001" viewBox="0 0 39 34.001">
  <path id="_79" data-name="79" d="M14.283,34a1.488,1.488,0,0,1-.535-.1c-.489-.184-1.309-.8-1.309-2.868V22.6L9.864,21.1,1.7,16.35c-1.6-.929-1.748-1.968-1.7-2.5s.4-1.524,2.145-2.117L15.267,7.276l20.9-7.1A3.061,3.061,0,0,1,37.148,0a1.811,1.811,0,0,1,1.3.5,2.193,2.193,0,0,1,.415,2.308L35.7,14.092,31.245,29.985a2.5,2.5,0,0,1-1.412,1.678,2.225,2.225,0,0,1-.858.169,2.6,2.6,0,0,1-1.3-.365L20.861,27.5l-4.287,5.092A3.145,3.145,0,0,1,14.283,34Zm-.465-10.6v7.634c0,1.145.294,1.508.408,1.551a.179.179,0,0,0,.063.01c.226,0,.669-.241,1.237-.917l4.115-4.888L13.818,23.4ZM37.507,2.538h0L14,21.888l14.359,8.36a1.237,1.237,0,0,0,.615.181.883.883,0,0,0,.341-.067,1.106,1.106,0,0,0,.605-.762l4.457-15.894L37.507,2.538Zm-.978-1L15.7,8.608,2.59,13.062c-.854.289-1.184.666-1.209.922s.227.691,1.008,1.147l8.16,4.749,2.164,1.261,23.816-19.6Z" transform="translate(0 0)" fill="#d59e29"/>
</svg>
