<svg xmlns="http://www.w3.org/2000/svg" width="22.226" height="27.08" viewBox="0 0 22.226 27.08">
  <g id="Group_41" data-name="Group 41" transform="translate(-896.075 -550)">
    <g id="_38" data-name="38" transform="translate(896 550)">
      <path id="Shape" d="M15.063,27.08H2.91A2.913,2.913,0,0,1,0,24.171V7.162A2.913,2.913,0,0,1,2.91,4.252H4.254V3.381A3.176,3.176,0,0,1,7.163,0H15.7a2.094,2.094,0,0,1,1.33.551L21.675,5.2a2.094,2.094,0,0,1,.551,1.33v12.92a3.386,3.386,0,0,1-3.382,3.381h-.872v1.343A2.913,2.913,0,0,1,15.063,27.08ZM2.91,5.21A1.954,1.954,0,0,0,.958,7.162V24.171A1.954,1.954,0,0,0,2.91,26.122H15.063a1.953,1.953,0,0,0,1.951-1.951V22.827H7.636a3.386,3.386,0,0,1-3.382-3.381V5.21Zm2.3-1.829h0V19.446A2.427,2.427,0,0,0,7.636,21.87H18.844a2.427,2.427,0,0,0,2.424-2.423V6.527a.6.6,0,0,0-.011-.1H17.729a1.932,1.932,0,0,1-1.93-1.93V.968a.632.632,0,0,0-.1-.01H7.163A2.229,2.229,0,0,0,5.212,3.381ZM16.757,1.635V4.5a.973.973,0,0,0,.972.972H20.59Z" transform="translate(0.075)" fill="#929292"/>
      <path id="Shape-2" data-name="Shape" d="M.559,1.117H6.529A.559.559,0,1,0,6.529,0H.559a.559.559,0,1,0,0,1.117Z" transform="translate(7.929 7.245)" fill="#929292"/>
    </g>
    <path id="Path" d="M.978,7.629a1.406,1.406,0,0,0,.72-.223L6.012,4.818a1.207,1.207,0,0,0,.659-1,1.207,1.207,0,0,0-.659-1L1.7.223A1.4,1.4,0,0,0,.978,0C.491,0,0,.366,0,1.184V6.445C0,7.263.491,7.629.978,7.629Z" transform="translate(904.194 560.29)" fill="#929292"/>
  </g>
</svg>
