<svg id="Group_48" data-name="Group 48" xmlns="http://www.w3.org/2000/svg" width="19.736" height="19.736" viewBox="0 0 19.736 19.736">
  <g id="_128" data-name="128">
    <path id="Path" d="M9.868,19.736A9.868,9.868,0,1,0,0,9.868,9.88,9.88,0,0,0,9.868,19.736Z" transform="translate(0 0)" fill="#d6d6d6"/>
  </g>
  <path id="Path-2" data-name="Path" d="M1.141,8.9a1.64,1.64,0,0,0,.839-.259L7.01,5.617a1.407,1.407,0,0,0,.768-1.17,1.407,1.407,0,0,0-.768-1.17L1.98.259A1.638,1.638,0,0,0,1.141,0C.573,0,0,.427,0,1.38V7.515C0,8.468.573,8.9,1.141,8.9Z" transform="translate(5.921 5.482)" fill="#fff"/>
</svg>
