<svg xmlns="http://www.w3.org/2000/svg" width="24.302" height="22.242" viewBox="0 0 24.302 22.242">
  <g id="_148" data-name="148" transform="translate(0 -0.814)">
    <path id="Shape" d="M20.233.057A.7.7,0,0,0,19.7.05L15.305,1.8a.435.435,0,0,0,.323.809L19.343,1.13a10.534,10.534,0,0,1-4.1,5.625A9.176,9.176,0,0,1,8,8.207,9.532,9.532,0,0,1,.868.712.45.45,0,0,0,.358.356a.423.423,0,0,0-.349.5,10.4,10.4,0,0,0,7.8,8.2A9.91,9.91,0,0,0,9.97,9.3a10.183,10.183,0,0,0,5.765-1.823,11.386,11.386,0,0,0,4.384-5.907l1.433,3.59a.435.435,0,0,0,.809-.323L20.608.44A.7.7,0,0,0,20.233.057Z" transform="translate(1.91 13.759)" fill="#929292"/>
    <path id="Shape-2" data-name="Shape" d="M1.785,8.855a.7.7,0,0,0,.909.39L7.086,7.492a.435.435,0,1,0-.323-.809L3.049,8.166a10.537,10.537,0,0,1,4.1-5.624A9.176,9.176,0,0,1,14.395,1.09a9.531,9.531,0,0,1,7.129,7.494.45.45,0,0,0,.51.355.423.423,0,0,0,.349-.5,10.4,10.4,0,0,0-7.8-8.2A10.043,10.043,0,0,0,6.658,1.823,11.389,11.389,0,0,0,2.274,7.729L.84,4.139a.435.435,0,1,0-.809.323Z" transform="translate(0 0.814)" fill="#929292"/>
  </g>
</svg>
