<svg xmlns="http://www.w3.org/2000/svg" width="36.721" height="13.052" viewBox="0 0 36.721 13.052">
  <g id="Group_53" data-name="Group 53" transform="translate(-278.279 -408.005)">
    <g id="Group_51" data-name="Group 51">
      <path id="Path_2" data-name="Path 2" d="M8.393,0H36.721L28.328,13.052H0Z" transform="translate(278.279 408.005)" fill="#d59e29"/>
    </g>
    <g id="Group_52" data-name="Group 52">
      <path id="Shape" d="M3.163,19.229a.586.586,0,0,0,.765,0l3.107-2.788a.16.16,0,0,0,0-.243.208.208,0,0,0-.271,0L3.737,18.913V.172a.193.193,0,0,0-.384,0V18.913L.327,16.2a.208.208,0,0,0-.271,0,.16.16,0,0,0,0,.243Z" transform="translate(306.801 410.965) rotate(90)" fill="#fff"/>
    </g>
  </g>
</svg>
