<svg xmlns="http://www.w3.org/2000/svg" width="39" height="39" viewBox="0 0 39 39">
  <g id="Youtube" transform="translate(-0.397 0.259)">
    <path id="Combined_Shape" data-name="Combined Shape" d="M19.5,39A19.505,19.505,0,0,1,11.91,1.532,19.505,19.505,0,0,1,27.09,37.468,19.378,19.378,0,0,1,19.5,39Zm0-26.65c-.065,0-6.523.005-8.126.446a2.641,2.641,0,0,0-1.839,1.888,28.712,28.712,0,0,0-.434,5.14,28.712,28.712,0,0,0,.434,5.14,2.641,2.641,0,0,0,1.839,1.888c1.6.441,8.061.446,8.126.446s6.523-.005,8.126-.446a2.641,2.641,0,0,0,1.839-1.888,28.674,28.674,0,0,0,.435-5.14,28.674,28.674,0,0,0-.435-5.14A2.641,2.641,0,0,0,27.626,12.8C26.023,12.355,19.565,12.35,19.5,12.35Z" transform="translate(0.397 -0.259)" fill="#fff"/>
    <path id="Fill_2" data-name="Fill 2" d="M0,6.534V0L5.228,3.267Z" transform="translate(17.866 16.99)" fill="#fff"/>
  </g>
</svg>
