<svg xmlns="http://www.w3.org/2000/svg" width="50" height="50" viewBox="0 0 50 50">
  <g id="Group_136" data-name="Group 136" transform="translate(-1057 -417)">
    <circle id="Ellipse_2" data-name="Ellipse 2" cx="25" cy="25" r="25" transform="translate(1057 417)" fill="#d59e29"/>
    <g id="_91" data-name="91" transform="translate(1072.453 428.744)">
      <path id="Shape" d="M17.333,0H.452a.452.452,0,0,0,0,.9H17.333a.452.452,0,0,0,0-.9Z" transform="translate(0.451 24.623)" fill="#fff"/>
      <path id="Shape-2" data-name="Shape" d="M.712,21.951h0a.7.7,0,0,1-.405-.125A.773.773,0,0,1,0,21.1l.283-3.264a5.261,5.261,0,0,1,.8-2.206L11.163,1.242l.37.259-.37-.259a2.914,2.914,0,1,1,4.773,3.343L5.863,18.972a5.262,5.262,0,0,1-1.8,1.508l-2.97,1.382A1.7,1.7,0,0,1,.712,21.951Zm1.622-6.527-.506.723a4.428,4.428,0,0,0-.643,1.767L.923,20.945l2.759-1.283a4.426,4.426,0,0,0,1.44-1.207l.507-.723ZM9.505,5.184l-6.653,9.5,3.295,2.306L12.8,7.49,9.505,5.184ZM13.553.9a2.016,2.016,0,0,0-1.65.857l-1.88,2.685,3.294,2.307L15.2,4.067A2.01,2.01,0,0,0,13.553.9Z" transform="translate(0 0)" fill="#fff"/>
    </g>
  </g>
</svg>
