<svg xmlns="http://www.w3.org/2000/svg" width="10.062" height="9.928" viewBox="0 0 10.062 9.928">
  <g id="_41" data-name="41" transform="translate(0 -0.6)">
    <path id="Shape" d="M9.884,0a.178.178,0,0,0-.178.178V3.235a.9.9,0,0,1-.9.9H1.256a.9.9,0,0,1-.9-.9V.178A.178.178,0,1,0,0,.178V3.235A1.258,1.258,0,0,0,1.256,4.492H8.805a1.258,1.258,0,0,0,1.257-1.256V.178A.178.178,0,0,0,9.884,0Z" transform="translate(0 6.036)" fill="#fff"/>
    <path id="Shape-2" data-name="Shape" d="M.3,3.279,3.109.473V7.037a.178.178,0,0,0,.356,0V.473L6.271,3.279a.178.178,0,0,0,.252-.252L3.642.147a.5.5,0,0,0-.709,0L.052,3.028A.178.178,0,1,0,.3,3.279Z" transform="translate(1.744 0.6)" fill="#fff"/>
  </g>
</svg>
