<svg id="Pinterest" xmlns="http://www.w3.org/2000/svg" width="39.142" height="39.174" viewBox="0 0 39.142 39.174">
  <path id="Combined_Shape" data-name="Combined Shape" d="M19.571,39.174A19.585,19.585,0,0,1,5.731,5.737a19.579,19.579,0,1,1,21.457,31.9A19.431,19.431,0,0,1,19.571,39.174ZM17.6,27.671h0c-.009.033-.891,3.4-1.105,4.219a20.137,20.137,0,0,1-2.2,4.653,17.782,17.782,0,1,0-1.214-.428,16.909,16.909,0,0,1,.063-5.094c.317-1.371,2.062-8.747,2.08-8.821a6.506,6.506,0,0,1-.53-2.635,5.134,5.134,0,0,1,.937-3.082,2.845,2.845,0,0,1,2.273-1.23,2.1,2.1,0,0,1,1.688.739,2.742,2.742,0,0,1,.555,1.762,13.972,13.972,0,0,1-.811,3.6c-.235.76-.477,1.546-.658,2.308a2.538,2.538,0,0,0,.453,2.2,2.736,2.736,0,0,0,2.174,1,4.839,4.839,0,0,0,3.97-2.264,10.341,10.341,0,0,0,1.606-5.866c0-4.251-3.046-7.221-7.408-7.221a7.689,7.689,0,0,0-8.008,7.7,6.928,6.928,0,0,0,1.319,4.051.535.535,0,0,1,.124.51c-.08.334-.219.9-.33,1.35-.075.3-.139.563-.163.662-.052.217-.149.318-.3.318a.721.721,0,0,1-.29-.079c-2.252-1.051-3.6-4.322-3.6-6.877a10.5,10.5,0,0,1,2.989-7.471,11.959,11.959,0,0,1,8.729-3.272,11.317,11.317,0,0,1,7.775,2.927,9.9,9.9,0,0,1,3.16,7.325,12.321,12.321,0,0,1-2.6,7.815,8.444,8.444,0,0,1-6.607,3.227,4.766,4.766,0,0,1-4.067-2.04Z" transform="translate(0 0)" fill="#fff"/>
</svg>
