<svg xmlns="http://www.w3.org/2000/svg" width="14.289" height="18.187" viewBox="0 0 14.289 18.187">
  <g id="_39" data-name="39" transform="translate(-0.646)">
    <path id="Shape" d="M12.018,18.187H2.271A2.274,2.274,0,0,1,0,15.916V2.271A2.274,2.274,0,0,1,2.271,0h6.92a1.406,1.406,0,0,1,.893.37L13.919,4.2a1.407,1.407,0,0,1,.37.893V15.916A2.274,2.274,0,0,1,12.018,18.187ZM2.271.643A1.63,1.63,0,0,0,.643,2.271V15.916a1.63,1.63,0,0,0,1.628,1.628h9.746a1.63,1.63,0,0,0,1.628-1.628V5.1a.417.417,0,0,0-.007-.068H10.556a1.3,1.3,0,0,1-1.3-1.3V.651A.4.4,0,0,0,9.192.643H2.271ZM9.9,1.1V3.734a.653.653,0,0,0,.653.653h2.635L9.9,1.1h0Z" transform="translate(0.646)" fill="#b97a2a"/>
    <path id="Shape-2" data-name="Shape" d="M.322.644H7.476a.322.322,0,1,0,0-.644H.322a.322.322,0,1,0,0,.644Z" transform="translate(3.892 12.671)" fill="#b97a2a"/>
    <path id="Shape-3" data-name="Shape" d="M.322.644H7.476a.322.322,0,1,0,0-.644H.322a.322.322,0,1,0,0,.644Z" transform="translate(3.892 9.259)" fill="#b97a2a"/>
    <path id="Shape-4" data-name="Shape" d="M.322.643h4.23a.322.322,0,1,0,0-.643H.322a.322.322,0,1,0,0,.643Z" transform="translate(3.892 5.848)" fill="#b97a2a"/>
  </g>
</svg>
